<?xml version="1.0" encoding="UTF-8" standalone="no"?>
<svg
   xmlns:dc="http://purl.org/dc/elements/1.1/"
   xmlns:cc="http://creativecommons.org/ns#"
   xmlns:rdf="http://www.w3.org/1999/02/22-rdf-syntax-ns#"
   xmlns:svg="http://www.w3.org/2000/svg"
   xmlns="http://www.w3.org/2000/svg"
   xmlns:sodipodi="http://sodipodi.sourceforge.net/DTD/sodipodi-0.dtd"
   xmlns:inkscape="http://www.inkscape.org/namespaces/inkscape"
   width="243.71307"
   height="243.71307"
   viewBox="0 0 292.45569 292.45569"
   version="1.1"
   id="svg8"
   sodipodi:docname="icon.svg"
   inkscape:version="0.92.5 (2060ec1f9f, 2020-04-08)">
  <metadata
     id="metadata14">
    <rdf:RDF>
      <cc:Work
         rdf:about="">
        <dc:format>image/svg+xml</dc:format>
        <dc:type
           rdf:resource="http://purl.org/dc/dcmitype/StillImage" />
        <dc:title>Risorsa 85</dc:title>
      </cc:Work>
    </rdf:RDF>
  </metadata>
  <defs
     id="defs12" />
  <sodipodi:namedview
     pagecolor="#ffffff"
     bordercolor="#666666"
     borderopacity="1"
     objecttolerance="10"
     gridtolerance="10"
     guidetolerance="10"
     inkscape:pageopacity="0"
     inkscape:pageshadow="2"
     inkscape:window-width="3840"
     inkscape:window-height="2039"
     id="namedview10"
     showgrid="false"
     inkscape:zoom="2.7389126"
     inkscape:cx="104.07689"
     inkscape:cy="92.171274"
     inkscape:window-x="0"
     inkscape:window-y="38"
     inkscape:window-maximized="1"
     inkscape:current-layer="svg8" />
  <title
     id="title2">Risorsa 85</title>
  <g
     id="Livello_2"
     data-name="Livello 2"
     transform="translate(52.96514,24.364221)">
    <g
       id="Livello_1-2"
       data-name="Livello 1">
      <path
         d="M 131.64024,51.90954 C 114.49124,34.76866 98.12945,18.42858 93.26,0 88.39024,18.42858 72.02583,34.76866 54.8797,51.90954 29.16037,77.61263 0,106.7432 0,150.434 a 93.26271,93.26271 0 1 0 186.52541,0 c 0,-43.688 -29.158,-72.8214 -54.88517,-98.52449 M 39.63956,172.16578 c -5.71847,-0.19418 -26.82308,-36.57089 12.32937,-75.303 l 25.90873,28.30088 a 2.21467,2.21467 0 0 1 -0.173,3.30485 c -6.18245,6.34085 -32.53369,32.7658 -35.809,41.90292 -0.676,1.886 -1.66339,1.81463 -2.25619,1.79436 M 93.26283,220.1092 A 32.07521,32.07521 0 0 1 61.18739,188.03377 33.42322,33.42322 0 0 1 69.1821,166.8471 c 5.7836,-7.07224 24.07643,-26.96358 24.07643,-26.96358 0,0 18.01279,20.18332 24.03326,26.89607 a 31.36794,31.36794 0 0 1 8.04647,21.25418 32.07551,32.07551 0 0 1 -32.07543,32.07543 m 61.3923,-52.015 c -0.69131,1.51192 -2.25954,4.036 -4.37617,4.113 -3.77288,0.13741 -4.176,-1.79579 -6.96465,-5.92291 C 137.19196,157.22422 83.76264,101.38438 73.76914,90.58504 64.97888,81.08653 72.53131,74.39004 76.03463,70.88073 80.42989,66.47768 93.25949,53.656 93.25949,53.656 c 0,0 38.25479,36.29607 54.19029,61.09626 15.9355,24.80019 10.44364,46.26024 7.20535,53.342"
         style="fill:#009cde"
         id="path4"
         inkscape:connector-curvature="0" />
    </g>
  </g>
</svg>
